<?xml version="1.0" encoding="UTF-8" standalone="no"?><svg xmlns="http://www.w3.org/2000/svg" xmlns:xlink="http://www.w3.org/1999/xlink" contentScriptType="application/ecmascript" contentStyleType="text/css" height="764px" preserveAspectRatio="none" style="width:801px;height:764px;" version="1.1" viewBox="0 0 801 764" width="801px" zoomAndPan="magnify"><defs><filter height="300%" id="fkov2kbtibg28" width="300%" x="-1" y="-1"><feGaussianBlur result="blurOut" stdDeviation="2.0"/><feColorMatrix in="blurOut" result="blurOut2" type="matrix" values="0 0 0 0 0 0 0 0 0 0 0 0 0 0 0 0 0 0 .4 0"/><feOffset dx="4.0" dy="4.0" in="blurOut2" result="blurOut3"/><feBlend in="SourceGraphic" in2="blurOut3" mode="normal"/></filter></defs><g><rect fill="#FFFFFF" filter="url(#fkov2kbtibg28)" height="242.9297" style="stroke: #A80036; stroke-width: 1.0;" width="10" x="660.5" y="114.8594"/><line style="stroke: #A80036; stroke-width: 1.0;" x1="87" x2="87" y1="54.5938" y2="511.4531"/><line style="stroke: #A80036; stroke-width: 1.0; stroke-dasharray: 1.0,4.0;" x1="87" x2="87" y1="511.4531" y2="552.2578"/><line style="stroke: #A80036; stroke-width: 1.0;" x1="87" x2="87" y1="552.2578" y2="707.9219"/><line style="stroke: #A80036; stroke-width: 1.0;" x1="287.5" x2="287.5" y1="54.5938" y2="511.4531"/><line style="stroke: #A80036; stroke-width: 1.0; stroke-dasharray: 1.0,4.0;" x1="287.5" x2="287.5" y1="511.4531" y2="552.2578"/><line style="stroke: #A80036; stroke-width: 1.0;" x1="287.5" x2="287.5" y1="552.2578" y2="707.9219"/><line style="stroke: #A80036; stroke-width: 1.0;" x1="514.5" x2="514.5" y1="54.5938" y2="511.4531"/><line style="stroke: #A80036; stroke-width: 1.0; stroke-dasharray: 1.0,4.0;" x1="514.5" x2="514.5" y1="511.4531" y2="552.2578"/><line style="stroke: #A80036; stroke-width: 1.0;" x1="514.5" x2="514.5" y1="552.2578" y2="707.9219"/><line style="stroke: #A80036; stroke-width: 1.0;" x1="665.5" x2="665.5" y1="54.5938" y2="511.4531"/><line style="stroke: #A80036; stroke-width: 1.0; stroke-dasharray: 1.0,4.0;" x1="665.5" x2="665.5" y1="511.4531" y2="552.2578"/><line style="stroke: #A80036; stroke-width: 1.0;" x1="665.5" x2="665.5" y1="552.2578" y2="707.9219"/><rect fill="#FEFECE" filter="url(#fkov2kbtibg28)" height="30.2969" style="stroke: #A80036; stroke-width: 1.5;" width="155" x="8" y="19.2969"/><text fill="#000000" font-family="sans-serif" font-size="14" lengthAdjust="spacingAndGlyphs" textLength="141" x="15" y="39.292">Administration tierce</text><rect fill="#FEFECE" filter="url(#fkov2kbtibg28)" height="30.2969" style="stroke: #A80036; stroke-width: 1.5;" width="155" x="8" y="706.9219"/><text fill="#000000" font-family="sans-serif" font-size="14" lengthAdjust="spacingAndGlyphs" textLength="141" x="15" y="726.917">Administration tierce</text><rect fill="#FEFECE" filter="url(#fkov2kbtibg28)" height="30.2969" style="stroke: #A80036; stroke-width: 1.5;" width="138" x="216.5" y="19.2969"/><text fill="#000000" font-family="sans-serif" font-size="14" lengthAdjust="spacingAndGlyphs" textLength="124" x="223.5" y="39.292">Incubateur DINSIC</text><rect fill="#FEFECE" filter="url(#fkov2kbtibg28)" height="30.2969" style="stroke: #A80036; stroke-width: 1.5;" width="138" x="216.5" y="706.9219"/><text fill="#000000" font-family="sans-serif" font-size="14" lengthAdjust="spacingAndGlyphs" textLength="124" x="223.5" y="726.917">Incubateur DINSIC</text><rect fill="#FEFECE" filter="url(#fkov2kbtibg28)" height="30.2969" style="stroke: #A80036; stroke-width: 1.5;" width="88" x="468.5" y="19.2969"/><text fill="#000000" font-family="sans-serif" font-size="14" lengthAdjust="spacingAndGlyphs" textLength="74" x="475.5" y="39.292">Prestataire</text><rect fill="#FEFECE" filter="url(#fkov2kbtibg28)" height="30.2969" style="stroke: #A80036; stroke-width: 1.5;" width="88" x="468.5" y="706.9219"/><text fill="#000000" font-family="sans-serif" font-size="14" lengthAdjust="spacingAndGlyphs" textLength="74" x="475.5" y="726.917">Prestataire</text><rect fill="#FEFECE" filter="url(#fkov2kbtibg28)" height="46.5938" style="stroke: #A80036; stroke-width: 1.5;" width="102" x="612.5" y="3"/><text fill="#000000" font-family="sans-serif" font-size="14" lengthAdjust="spacingAndGlyphs" textLength="88" x="619.5" y="22.9951">Indépendant</text><text fill="#000000" font-family="sans-serif" font-size="14" lengthAdjust="spacingAndGlyphs" textLength="86" x="620.5" y="39.292">sous traitant</text><rect fill="#FEFECE" filter="url(#fkov2kbtibg28)" height="46.5938" style="stroke: #A80036; stroke-width: 1.5;" width="102" x="612.5" y="706.9219"/><text fill="#000000" font-family="sans-serif" font-size="14" lengthAdjust="spacingAndGlyphs" textLength="88" x="619.5" y="726.917">Indépendant</text><text fill="#000000" font-family="sans-serif" font-size="14" lengthAdjust="spacingAndGlyphs" textLength="86" x="620.5" y="743.2139">sous traitant</text><rect fill="#FFFFFF" filter="url(#fkov2kbtibg28)" height="242.9297" style="stroke: #A80036; stroke-width: 1.0;" width="10" x="660.5" y="114.8594"/><polygon fill="#A80036" points="275.5,81.7266,285.5,85.7266,275.5,89.7266,279.5,85.7266" style="stroke: #A80036; stroke-width: 1.0;"/><line style="stroke: #A80036; stroke-width: 1.0;" x1="87.5" x2="281.5" y1="85.7266" y2="85.7266"/><text fill="#000000" font-family="sans-serif" font-size="13" lengthAdjust="spacingAndGlyphs" textLength="176" x="94.5" y="80.6606">convention de refacturation</text><polygon fill="#A80036" points="502.5,110.8594,512.5,114.8594,502.5,118.8594,506.5,114.8594" style="stroke: #A80036; stroke-width: 1.0;"/><line style="stroke: #A80036; stroke-width: 1.0;" x1="287.5" x2="508.5" y1="114.8594" y2="114.8594"/><text fill="#000000" font-family="sans-serif" font-size="13" lengthAdjust="spacingAndGlyphs" textLength="168" x="294.5" y="109.7935">bon de commande (n°BC)</text><line style="stroke: #A80036; stroke-width: 1.0;" x1="670.5" x2="712.5" y1="143.9922" y2="143.9922"/><line style="stroke: #A80036; stroke-width: 1.0;" x1="712.5" x2="712.5" y1="143.9922" y2="156.9922"/><line style="stroke: #A80036; stroke-width: 1.0;" x1="671.5" x2="712.5" y1="156.9922" y2="156.9922"/><polygon fill="#A80036" points="681.5,152.9922,671.5,156.9922,681.5,160.9922,677.5,156.9922" style="stroke: #A80036; stroke-width: 1.0;"/><text fill="#000000" font-family="sans-serif" font-size="13" lengthAdjust="spacingAndGlyphs" textLength="112" x="677.5" y="138.9263">prestation mois 1</text><polygon fill="#A80036" points="525.5,182.125,515.5,186.125,525.5,190.125,521.5,186.125" style="stroke: #A80036; stroke-width: 1.0;"/><line style="stroke: #A80036; stroke-width: 1.0;" x1="519.5" x2="659.5" y1="186.125" y2="186.125"/><text fill="#000000" font-family="sans-serif" font-size="13" lengthAdjust="spacingAndGlyphs" textLength="53" x="531.5" y="181.0591">facture1</text><line style="stroke: #A80036; stroke-width: 1.0;" x1="670.5" x2="712.5" y1="215.2578" y2="215.2578"/><line style="stroke: #A80036; stroke-width: 1.0;" x1="712.5" x2="712.5" y1="215.2578" y2="228.2578"/><line style="stroke: #A80036; stroke-width: 1.0;" x1="671.5" x2="712.5" y1="228.2578" y2="228.2578"/><polygon fill="#A80036" points="681.5,224.2578,671.5,228.2578,681.5,232.2578,677.5,228.2578" style="stroke: #A80036; stroke-width: 1.0;"/><text fill="#000000" font-family="sans-serif" font-size="13" lengthAdjust="spacingAndGlyphs" textLength="112" x="677.5" y="210.1919">prestation mois 2</text><polygon fill="#A80036" points="525.5,253.3906,515.5,257.3906,525.5,261.3906,521.5,257.3906" style="stroke: #A80036; stroke-width: 1.0;"/><line style="stroke: #A80036; stroke-width: 1.0;" x1="519.5" x2="659.5" y1="257.3906" y2="257.3906"/><text fill="#000000" font-family="sans-serif" font-size="13" lengthAdjust="spacingAndGlyphs" textLength="53" x="531.5" y="252.3247">facture2</text><polygon fill="#A80036" points="648.5,282.5234,658.5,286.5234,648.5,290.5234,652.5,286.5234" style="stroke: #A80036; stroke-width: 1.0;"/><line style="stroke: #A80036; stroke-width: 1.0;" x1="514.5" x2="654.5" y1="286.5234" y2="286.5234"/><text fill="#000000" font-family="sans-serif" font-size="13" lengthAdjust="spacingAndGlyphs" textLength="122" x="521.5" y="281.4575">paiement facture 1</text><line style="stroke: #A80036; stroke-width: 1.0;" x1="670.5" x2="712.5" y1="315.6563" y2="315.6563"/><line style="stroke: #A80036; stroke-width: 1.0;" x1="712.5" x2="712.5" y1="315.6563" y2="328.6563"/><line style="stroke: #A80036; stroke-width: 1.0;" x1="671.5" x2="712.5" y1="328.6563" y2="328.6563"/><polygon fill="#A80036" points="681.5,324.6563,671.5,328.6563,681.5,332.6563,677.5,328.6563" style="stroke: #A80036; stroke-width: 1.0;"/><text fill="#000000" font-family="sans-serif" font-size="13" lengthAdjust="spacingAndGlyphs" textLength="112" x="677.5" y="310.5903">prestation mois 3</text><polygon fill="#A80036" points="525.5,353.7891,515.5,357.7891,525.5,361.7891,521.5,357.7891" style="stroke: #A80036; stroke-width: 1.0;"/><line style="stroke: #A80036; stroke-width: 1.0;" x1="519.5" x2="664.5" y1="357.7891" y2="357.7891"/><text fill="#000000" font-family="sans-serif" font-size="13" lengthAdjust="spacingAndGlyphs" textLength="53" x="531.5" y="352.7231">facture3</text><polygon fill="#A80036" points="653.5,382.9219,663.5,386.9219,653.5,390.9219,657.5,386.9219" style="stroke: #A80036; stroke-width: 1.0;"/><line style="stroke: #A80036; stroke-width: 1.0;" x1="514.5" x2="659.5" y1="386.9219" y2="386.9219"/><text fill="#000000" font-family="sans-serif" font-size="13" lengthAdjust="spacingAndGlyphs" textLength="122" x="521.5" y="381.856">paiement facture 2</text><polygon fill="#A80036" points="298.5,412.0547,288.5,416.0547,298.5,420.0547,294.5,416.0547" style="stroke: #A80036; stroke-width: 1.0;"/><line style="stroke: #A80036; stroke-width: 1.0;" x1="292.5" x2="513.5" y1="416.0547" y2="416.0547"/><text fill="#000000" font-family="sans-serif" font-size="13" lengthAdjust="spacingAndGlyphs" textLength="17" x="304.5" y="410.9888">PV</text><polygon fill="#A80036" points="502.5,441.1875,512.5,445.1875,502.5,449.1875,506.5,445.1875" style="stroke: #A80036; stroke-width: 1.0;"/><line style="stroke: #A80036; stroke-width: 1.0;" x1="287.5" x2="508.5" y1="445.1875" y2="445.1875"/><text fill="#000000" font-family="sans-serif" font-size="13" lengthAdjust="spacingAndGlyphs" textLength="69" x="294.5" y="440.1216">service fait</text><polygon fill="#A80036" points="653.5,470.3203,663.5,474.3203,653.5,478.3203,657.5,474.3203" style="stroke: #A80036; stroke-width: 1.0;"/><line style="stroke: #A80036; stroke-width: 1.0;" x1="514.5" x2="659.5" y1="474.3203" y2="474.3203"/><text fill="#000000" font-family="sans-serif" font-size="13" lengthAdjust="spacingAndGlyphs" textLength="122" x="521.5" y="469.2544">paiement facture 3</text><polygon fill="#A80036" points="298.5,499.4531,288.5,503.4531,298.5,507.4531,294.5,503.4531" style="stroke: #A80036; stroke-width: 1.0;"/><line style="stroke: #A80036; stroke-width: 1.0;" x1="292.5" x2="513.5" y1="503.4531" y2="503.4531"/><text fill="#000000" font-family="sans-serif" font-size="13" lengthAdjust="spacingAndGlyphs" textLength="203" x="304.5" y="498.3872">facture A sur Chorus Pro (n°BC)</text><text fill="#000000" font-family="sans-serif" font-size="11" lengthAdjust="spacingAndGlyphs" textLength="102" x="325.5" y="535.6636">30 jours plus tard</text><polygon fill="#A80036" points="502.5,569.3906,512.5,573.3906,502.5,577.3906,506.5,573.3906" style="stroke: #A80036; stroke-width: 1.0;"/><line style="stroke: #A80036; stroke-width: 1.0;" x1="287.5" x2="508.5" y1="573.3906" y2="573.3906"/><text fill="#000000" font-family="sans-serif" font-size="13" lengthAdjust="spacingAndGlyphs" textLength="128" x="294.5" y="568.3247">règlement facture A</text><polygon fill="#A80036" points="98.5,598.5234,88.5,602.5234,98.5,606.5234,94.5,602.5234" style="stroke: #A80036; stroke-width: 1.0;"/><line style="stroke: #A80036; stroke-width: 1.0;" x1="92.5" x2="286.5" y1="602.5234" y2="602.5234"/><text fill="#000000" font-family="sans-serif" font-size="13" lengthAdjust="spacingAndGlyphs" textLength="83" x="104.5" y="597.4575">état liquidatif</text><polygon fill="#A80036" points="275.5,627.6563,285.5,631.6563,275.5,635.6563,279.5,631.6563" style="stroke: #A80036; stroke-width: 1.0;"/><line style="stroke: #A80036; stroke-width: 1.0;" x1="87.5" x2="281.5" y1="631.6563" y2="631.6563"/><text fill="#000000" font-family="sans-serif" font-size="13" lengthAdjust="spacingAndGlyphs" textLength="28" x="94.5" y="626.5903">"OK"</text><polygon fill="#A80036" points="98.5,656.7891,88.5,660.7891,98.5,664.7891,94.5,660.7891" style="stroke: #A80036; stroke-width: 1.0;"/><line style="stroke: #A80036; stroke-width: 1.0;" x1="92.5" x2="286.5" y1="660.7891" y2="660.7891"/><text fill="#000000" font-family="sans-serif" font-size="13" lengthAdjust="spacingAndGlyphs" textLength="118" x="104.5" y="655.7231">titre de perception</text><polygon fill="#A80036" points="275.5,685.9219,285.5,689.9219,275.5,693.9219,279.5,689.9219" style="stroke: #A80036; stroke-width: 1.0;"/><line style="stroke: #A80036; stroke-width: 1.0;" x1="87.5" x2="281.5" y1="689.9219" y2="689.9219"/><text fill="#000000" font-family="sans-serif" font-size="13" lengthAdjust="spacingAndGlyphs" textLength="124" x="94.5" y="684.856">argent refacturé \o/</text><!--
@startuml

participant "Administration tierce" as admin
participant "Incubateur DINSIC" as dinsic
participant "Prestataire" as prestataire
participant "Indépendant\nsous traitant" as indep

admin -> dinsic : convention de refacturation
dinsic -> prestataire : bon de commande (n°BC)
activate indep
indep -> indep : prestation mois 1
indep -> prestataire : facture1
indep -> indep : prestation mois 2
indep -> prestataire : facture2
prestataire -> indep : paiement facture 1
indep -> indep : prestation mois 3
indep -> prestataire : facture3
deactivate indep
prestataire -> indep : paiement facture 2
prestataire -> dinsic : PV
dinsic -> prestataire : service fait
prestataire -> indep : paiement facture 3
prestataire -> dinsic : facture A sur Chorus Pro (n°BC)
...30 jours plus tard...
dinsic -> prestataire : règlement facture A
dinsic -> admin : état liquidatif
admin -> dinsic : "OK"
dinsic -> admin : titre de perception
admin -> dinsic : argent refacturé \o/

@enduml

PlantUML version 1.2018.11(Sat Sep 22 18:43:53 CEST 2018)
(GPL source distribution)
Java Runtime: Java(TM) SE Runtime Environment
JVM: Java HotSpot(TM) 64-Bit Server VM
Java Version: 1.8.0_101-b13
Operating System: Linux
OS Version: 4.4.0-135-generic
Default Encoding: UTF-8
Language: en
Country: US
--></g></svg>