<?xml version="1.0" encoding="UTF-8" standalone="no"?><svg xmlns="http://www.w3.org/2000/svg" xmlns:xlink="http://www.w3.org/1999/xlink" contentScriptType="application/ecmascript" contentStyleType="text/css" height="851px" preserveAspectRatio="none" style="width:847px;height:851px;" version="1.1" viewBox="0 0 847 851" width="847px" zoomAndPan="magnify"><defs><filter height="300%" id="faomcuj9sqzxn" width="300%" x="-1" y="-1"><feGaussianBlur result="blurOut" stdDeviation="2.0"/><feColorMatrix in="blurOut" result="blurOut2" type="matrix" values="0 0 0 0 0 0 0 0 0 0 0 0 0 0 0 0 0 0 .4 0"/><feOffset dx="4.0" dy="4.0" in="blurOut2" result="blurOut3"/><feBlend in="SourceGraphic" in2="blurOut3" mode="normal"/></filter></defs><g><rect fill="#FFFFFF" filter="url(#faomcuj9sqzxn)" height="242.9297" style="stroke: #A80036; stroke-width: 1.0;" width="10" x="706.5" y="173.125"/><line style="stroke: #A80036; stroke-width: 1.0;" x1="87" x2="87" y1="54.5938" y2="598.8516"/><line style="stroke: #A80036; stroke-width: 1.0; stroke-dasharray: 1.0,4.0;" x1="87" x2="87" y1="598.8516" y2="639.6563"/><line style="stroke: #A80036; stroke-width: 1.0;" x1="87" x2="87" y1="639.6563" y2="795.3203"/><line style="stroke: #A80036; stroke-width: 1.0;" x1="287.5" x2="287.5" y1="54.5938" y2="598.8516"/><line style="stroke: #A80036; stroke-width: 1.0; stroke-dasharray: 1.0,4.0;" x1="287.5" x2="287.5" y1="598.8516" y2="639.6563"/><line style="stroke: #A80036; stroke-width: 1.0;" x1="287.5" x2="287.5" y1="639.6563" y2="795.3203"/><line style="stroke: #A80036; stroke-width: 1.0;" x1="426.5" x2="426.5" y1="54.5938" y2="598.8516"/><line style="stroke: #A80036; stroke-width: 1.0; stroke-dasharray: 1.0,4.0;" x1="426.5" x2="426.5" y1="598.8516" y2="639.6563"/><line style="stroke: #A80036; stroke-width: 1.0;" x1="426.5" x2="426.5" y1="639.6563" y2="795.3203"/><line style="stroke: #A80036; stroke-width: 1.0;" x1="560.5" x2="560.5" y1="54.5938" y2="598.8516"/><line style="stroke: #A80036; stroke-width: 1.0; stroke-dasharray: 1.0,4.0;" x1="560.5" x2="560.5" y1="598.8516" y2="639.6563"/><line style="stroke: #A80036; stroke-width: 1.0;" x1="560.5" x2="560.5" y1="639.6563" y2="795.3203"/><line style="stroke: #A80036; stroke-width: 1.0;" x1="711.5" x2="711.5" y1="54.5938" y2="598.8516"/><line style="stroke: #A80036; stroke-width: 1.0; stroke-dasharray: 1.0,4.0;" x1="711.5" x2="711.5" y1="598.8516" y2="639.6563"/><line style="stroke: #A80036; stroke-width: 1.0;" x1="711.5" x2="711.5" y1="639.6563" y2="795.3203"/><rect fill="#FEFECE" filter="url(#faomcuj9sqzxn)" height="30.2969" style="stroke: #A80036; stroke-width: 1.5;" width="155" x="8" y="19.2969"/><text fill="#000000" font-family="sans-serif" font-size="14" lengthAdjust="spacingAndGlyphs" textLength="141" x="15" y="39.292">Administration tierce</text><rect fill="#FEFECE" filter="url(#faomcuj9sqzxn)" height="30.2969" style="stroke: #A80036; stroke-width: 1.5;" width="155" x="8" y="794.3203"/><text fill="#000000" font-family="sans-serif" font-size="14" lengthAdjust="spacingAndGlyphs" textLength="141" x="15" y="814.3154">Administration tierce</text><rect fill="#FEFECE" filter="url(#faomcuj9sqzxn)" height="30.2969" style="stroke: #A80036; stroke-width: 1.5;" width="162" x="204.5" y="19.2969"/><text fill="#000000" font-family="sans-serif" font-size="14" lengthAdjust="spacingAndGlyphs" textLength="148" x="211.5" y="39.292">Administration DINSIC</text><rect fill="#FEFECE" filter="url(#faomcuj9sqzxn)" height="30.2969" style="stroke: #A80036; stroke-width: 1.5;" width="162" x="204.5" y="794.3203"/><text fill="#000000" font-family="sans-serif" font-size="14" lengthAdjust="spacingAndGlyphs" textLength="148" x="211.5" y="814.3154">Administration DINSIC</text><rect fill="#FEFECE" filter="url(#faomcuj9sqzxn)" height="30.2969" style="stroke: #A80036; stroke-width: 1.5;" width="88" x="380.5" y="19.2969"/><text fill="#000000" font-family="sans-serif" font-size="14" lengthAdjust="spacingAndGlyphs" textLength="74" x="387.5" y="39.292">Incubateur</text><rect fill="#FEFECE" filter="url(#faomcuj9sqzxn)" height="30.2969" style="stroke: #A80036; stroke-width: 1.5;" width="88" x="380.5" y="794.3203"/><text fill="#000000" font-family="sans-serif" font-size="14" lengthAdjust="spacingAndGlyphs" textLength="74" x="387.5" y="814.3154">Incubateur</text><rect fill="#FEFECE" filter="url(#faomcuj9sqzxn)" height="30.2969" style="stroke: #A80036; stroke-width: 1.5;" width="88" x="514.5" y="19.2969"/><text fill="#000000" font-family="sans-serif" font-size="14" lengthAdjust="spacingAndGlyphs" textLength="74" x="521.5" y="39.292">Prestataire</text><rect fill="#FEFECE" filter="url(#faomcuj9sqzxn)" height="30.2969" style="stroke: #A80036; stroke-width: 1.5;" width="88" x="514.5" y="794.3203"/><text fill="#000000" font-family="sans-serif" font-size="14" lengthAdjust="spacingAndGlyphs" textLength="74" x="521.5" y="814.3154">Prestataire</text><rect fill="#FEFECE" filter="url(#faomcuj9sqzxn)" height="46.5938" style="stroke: #A80036; stroke-width: 1.5;" width="102" x="658.5" y="3"/><text fill="#000000" font-family="sans-serif" font-size="14" lengthAdjust="spacingAndGlyphs" textLength="88" x="665.5" y="22.9951">Indépendant</text><text fill="#000000" font-family="sans-serif" font-size="14" lengthAdjust="spacingAndGlyphs" textLength="86" x="666.5" y="39.292">sous traitant</text><rect fill="#FEFECE" filter="url(#faomcuj9sqzxn)" height="46.5938" style="stroke: #A80036; stroke-width: 1.5;" width="102" x="658.5" y="794.3203"/><text fill="#000000" font-family="sans-serif" font-size="14" lengthAdjust="spacingAndGlyphs" textLength="88" x="665.5" y="814.3154">Indépendant</text><text fill="#000000" font-family="sans-serif" font-size="14" lengthAdjust="spacingAndGlyphs" textLength="86" x="666.5" y="830.6123">sous traitant</text><rect fill="#FFFFFF" filter="url(#faomcuj9sqzxn)" height="242.9297" style="stroke: #A80036; stroke-width: 1.0;" width="10" x="706.5" y="173.125"/><polygon fill="#A80036" points="275.5,81.7266,285.5,85.7266,275.5,89.7266,279.5,85.7266" style="stroke: #A80036; stroke-width: 1.0;"/><line style="stroke: #A80036; stroke-width: 1.0;" x1="87.5" x2="281.5" y1="85.7266" y2="85.7266"/><text fill="#000000" font-family="sans-serif" font-size="13" lengthAdjust="spacingAndGlyphs" textLength="176" x="94.5" y="80.6606">convention de refacturation</text><polygon fill="#A80036" points="437.5,110.8594,427.5,114.8594,437.5,118.8594,433.5,114.8594" style="stroke: #A80036; stroke-width: 1.0;"/><line style="stroke: #A80036; stroke-width: 1.0;" x1="431.5" x2="559.5" y1="114.8594" y2="114.8594"/><text fill="#000000" font-family="sans-serif" font-size="13" lengthAdjust="spacingAndGlyphs" textLength="33" x="443.5" y="109.7935">devis</text><polygon fill="#A80036" points="298.5,139.9922,288.5,143.9922,298.5,147.9922,294.5,143.9922" style="stroke: #A80036; stroke-width: 1.0;"/><line style="stroke: #A80036; stroke-width: 1.0;" x1="292.5" x2="425.5" y1="143.9922" y2="143.9922"/><text fill="#000000" font-family="sans-serif" font-size="13" lengthAdjust="spacingAndGlyphs" textLength="71" x="304.5" y="138.9263">devis signé</text><polygon fill="#A80036" points="548.5,169.125,558.5,173.125,548.5,177.125,552.5,173.125" style="stroke: #A80036; stroke-width: 1.0;"/><line style="stroke: #A80036; stroke-width: 1.0;" x1="287.5" x2="554.5" y1="173.125" y2="173.125"/><text fill="#000000" font-family="sans-serif" font-size="13" lengthAdjust="spacingAndGlyphs" textLength="168" x="294.5" y="168.0591">bon de commande (n°BC)</text><line style="stroke: #A80036; stroke-width: 1.0;" x1="716.5" x2="758.5" y1="202.2578" y2="202.2578"/><line style="stroke: #A80036; stroke-width: 1.0;" x1="758.5" x2="758.5" y1="202.2578" y2="215.2578"/><line style="stroke: #A80036; stroke-width: 1.0;" x1="717.5" x2="758.5" y1="215.2578" y2="215.2578"/><polygon fill="#A80036" points="727.5,211.2578,717.5,215.2578,727.5,219.2578,723.5,215.2578" style="stroke: #A80036; stroke-width: 1.0;"/><text fill="#000000" font-family="sans-serif" font-size="13" lengthAdjust="spacingAndGlyphs" textLength="112" x="723.5" y="197.1919">prestation mois 1</text><polygon fill="#A80036" points="571.5,240.3906,561.5,244.3906,571.5,248.3906,567.5,244.3906" style="stroke: #A80036; stroke-width: 1.0;"/><line style="stroke: #A80036; stroke-width: 1.0;" x1="565.5" x2="705.5" y1="244.3906" y2="244.3906"/><text fill="#000000" font-family="sans-serif" font-size="13" lengthAdjust="spacingAndGlyphs" textLength="53" x="577.5" y="239.3247">facture1</text><line style="stroke: #A80036; stroke-width: 1.0;" x1="716.5" x2="758.5" y1="273.5234" y2="273.5234"/><line style="stroke: #A80036; stroke-width: 1.0;" x1="758.5" x2="758.5" y1="273.5234" y2="286.5234"/><line style="stroke: #A80036; stroke-width: 1.0;" x1="717.5" x2="758.5" y1="286.5234" y2="286.5234"/><polygon fill="#A80036" points="727.5,282.5234,717.5,286.5234,727.5,290.5234,723.5,286.5234" style="stroke: #A80036; stroke-width: 1.0;"/><text fill="#000000" font-family="sans-serif" font-size="13" lengthAdjust="spacingAndGlyphs" textLength="112" x="723.5" y="268.4575">prestation mois 2</text><polygon fill="#A80036" points="571.5,311.6563,561.5,315.6563,571.5,319.6563,567.5,315.6563" style="stroke: #A80036; stroke-width: 1.0;"/><line style="stroke: #A80036; stroke-width: 1.0;" x1="565.5" x2="705.5" y1="315.6563" y2="315.6563"/><text fill="#000000" font-family="sans-serif" font-size="13" lengthAdjust="spacingAndGlyphs" textLength="53" x="577.5" y="310.5903">facture2</text><polygon fill="#A80036" points="694.5,340.7891,704.5,344.7891,694.5,348.7891,698.5,344.7891" style="stroke: #A80036; stroke-width: 1.0;"/><line style="stroke: #A80036; stroke-width: 1.0;" x1="560.5" x2="700.5" y1="344.7891" y2="344.7891"/><text fill="#000000" font-family="sans-serif" font-size="13" lengthAdjust="spacingAndGlyphs" textLength="122" x="567.5" y="339.7231">paiement facture 1</text><line style="stroke: #A80036; stroke-width: 1.0;" x1="716.5" x2="758.5" y1="373.9219" y2="373.9219"/><line style="stroke: #A80036; stroke-width: 1.0;" x1="758.5" x2="758.5" y1="373.9219" y2="386.9219"/><line style="stroke: #A80036; stroke-width: 1.0;" x1="717.5" x2="758.5" y1="386.9219" y2="386.9219"/><polygon fill="#A80036" points="727.5,382.9219,717.5,386.9219,727.5,390.9219,723.5,386.9219" style="stroke: #A80036; stroke-width: 1.0;"/><text fill="#000000" font-family="sans-serif" font-size="13" lengthAdjust="spacingAndGlyphs" textLength="112" x="723.5" y="368.856">prestation mois 3</text><polygon fill="#A80036" points="571.5,412.0547,561.5,416.0547,571.5,420.0547,567.5,416.0547" style="stroke: #A80036; stroke-width: 1.0;"/><line style="stroke: #A80036; stroke-width: 1.0;" x1="565.5" x2="710.5" y1="416.0547" y2="416.0547"/><text fill="#000000" font-family="sans-serif" font-size="13" lengthAdjust="spacingAndGlyphs" textLength="53" x="577.5" y="410.9888">facture3</text><polygon fill="#A80036" points="699.5,441.1875,709.5,445.1875,699.5,449.1875,703.5,445.1875" style="stroke: #A80036; stroke-width: 1.0;"/><line style="stroke: #A80036; stroke-width: 1.0;" x1="560.5" x2="705.5" y1="445.1875" y2="445.1875"/><text fill="#000000" font-family="sans-serif" font-size="13" lengthAdjust="spacingAndGlyphs" textLength="122" x="567.5" y="440.1216">paiement facture 2</text><polygon fill="#A80036" points="699.5,470.3203,709.5,474.3203,699.5,478.3203,703.5,474.3203" style="stroke: #A80036; stroke-width: 1.0;"/><line style="stroke: #A80036; stroke-width: 1.0;" x1="560.5" x2="705.5" y1="474.3203" y2="474.3203"/><text fill="#000000" font-family="sans-serif" font-size="13" lengthAdjust="spacingAndGlyphs" textLength="122" x="567.5" y="469.2544">paiement facture 3</text><polygon fill="#A80036" points="437.5,499.4531,427.5,503.4531,437.5,507.4531,433.5,503.4531" style="stroke: #A80036; stroke-width: 1.0;"/><line style="stroke: #A80036; stroke-width: 1.0;" x1="431.5" x2="559.5" y1="503.4531" y2="503.4531"/><text fill="#000000" font-family="sans-serif" font-size="13" lengthAdjust="spacingAndGlyphs" textLength="69" x="443.5" y="498.3872">service fait</text><polygon fill="#A80036" points="298.5,528.5859,288.5,532.5859,298.5,536.5859,294.5,532.5859" style="stroke: #A80036; stroke-width: 1.0;"/><line style="stroke: #A80036; stroke-width: 1.0;" x1="292.5" x2="425.5" y1="532.5859" y2="532.5859"/><text fill="#000000" font-family="sans-serif" font-size="13" lengthAdjust="spacingAndGlyphs" textLength="90" x="304.5" y="527.52">PV service fait</text><polygon fill="#A80036" points="548.5,557.7188,558.5,561.7188,548.5,565.7188,552.5,561.7188" style="stroke: #A80036; stroke-width: 1.0;"/><line style="stroke: #A80036; stroke-width: 1.0;" x1="426.5" x2="554.5" y1="561.7188" y2="561.7188"/><text fill="#000000" font-family="sans-serif" font-size="13" lengthAdjust="spacingAndGlyphs" textLength="110" x="433.5" y="556.6528">PV de service fait</text><polygon fill="#A80036" points="298.5,586.8516,288.5,590.8516,298.5,594.8516,294.5,590.8516" style="stroke: #A80036; stroke-width: 1.0;"/><line style="stroke: #A80036; stroke-width: 1.0;" x1="292.5" x2="559.5" y1="590.8516" y2="590.8516"/><text fill="#000000" font-family="sans-serif" font-size="13" lengthAdjust="spacingAndGlyphs" textLength="203" x="304.5" y="585.7856">facture A sur Chorus Pro (n°BC)</text><text fill="#000000" font-family="sans-serif" font-size="11" lengthAdjust="spacingAndGlyphs" textLength="102" x="348.5" y="623.062">30 jours plus tard</text><polygon fill="#A80036" points="548.5,656.7891,558.5,660.7891,548.5,664.7891,552.5,660.7891" style="stroke: #A80036; stroke-width: 1.0;"/><line style="stroke: #A80036; stroke-width: 1.0;" x1="287.5" x2="554.5" y1="660.7891" y2="660.7891"/><text fill="#000000" font-family="sans-serif" font-size="13" lengthAdjust="spacingAndGlyphs" textLength="128" x="294.5" y="655.7231">règlement facture A</text><polygon fill="#A80036" points="98.5,685.9219,88.5,689.9219,98.5,693.9219,94.5,689.9219" style="stroke: #A80036; stroke-width: 1.0;"/><line style="stroke: #A80036; stroke-width: 1.0;" x1="92.5" x2="286.5" y1="689.9219" y2="689.9219"/><text fill="#000000" font-family="sans-serif" font-size="13" lengthAdjust="spacingAndGlyphs" textLength="83" x="104.5" y="684.856">état liquidatif</text><polygon fill="#A80036" points="275.5,715.0547,285.5,719.0547,275.5,723.0547,279.5,719.0547" style="stroke: #A80036; stroke-width: 1.0;"/><line style="stroke: #A80036; stroke-width: 1.0;" x1="87.5" x2="281.5" y1="719.0547" y2="719.0547"/><text fill="#000000" font-family="sans-serif" font-size="13" lengthAdjust="spacingAndGlyphs" textLength="28" x="94.5" y="713.9888">"OK"</text><polygon fill="#A80036" points="98.5,744.1875,88.5,748.1875,98.5,752.1875,94.5,748.1875" style="stroke: #A80036; stroke-width: 1.0;"/><line style="stroke: #A80036; stroke-width: 1.0;" x1="92.5" x2="286.5" y1="748.1875" y2="748.1875"/><text fill="#000000" font-family="sans-serif" font-size="13" lengthAdjust="spacingAndGlyphs" textLength="118" x="104.5" y="743.1216">titre de perception</text><polygon fill="#A80036" points="275.5,773.3203,285.5,777.3203,275.5,781.3203,279.5,777.3203" style="stroke: #A80036; stroke-width: 1.0;"/><line style="stroke: #A80036; stroke-width: 1.0;" x1="87.5" x2="281.5" y1="777.3203" y2="777.3203"/><text fill="#000000" font-family="sans-serif" font-size="13" lengthAdjust="spacingAndGlyphs" textLength="124" x="94.5" y="772.2544">argent refacturé \o/</text><!--
@startuml

participant "Administration tierce" as tiers
participant "Administration DINSIC" as dinsic
participant "Incubateur" as incubateur
participant "Prestataire" as prestataire
participant "Indépendant\nsous traitant" as indep

tiers -> dinsic : convention de refacturation
prestataire -> incubateur : devis
incubateur -> dinsic : devis signé
dinsic -> prestataire : bon de commande (n°BC)
activate indep
indep -> indep : prestation mois 1
indep -> prestataire : facture1
indep -> indep : prestation mois 2
indep -> prestataire : facture2
prestataire -> indep : paiement facture 1
indep -> indep : prestation mois 3
indep -> prestataire : facture3
deactivate indep
prestataire -> indep : paiement facture 2
prestataire -> indep : paiement facture 3
prestataire -> incubateur : service fait
incubateur -> dinsic : PV service fait
incubateur -> prestataire : PV de service fait
prestataire -> dinsic : facture A sur Chorus Pro (n°BC)
...30 jours plus tard...
dinsic -> prestataire : règlement facture A
dinsic -> tiers : état liquidatif
tiers -> dinsic : "OK"
dinsic -> tiers : titre de perception
tiers -> dinsic : argent refacturé \o/

@enduml

PlantUML version 1.2018.11(Sat Sep 22 18:43:53 CEST 2018)
(GPL source distribution)
Java Runtime: Java(TM) SE Runtime Environment
JVM: Java HotSpot(TM) 64-Bit Server VM
Java Version: 1.8.0_101-b13
Operating System: Linux
OS Version: 4.4.0-135-generic
Default Encoding: UTF-8
Language: en
Country: US
--></g></svg>