<?xml version="1.0" encoding="UTF-8" standalone="no"?><svg xmlns="http://www.w3.org/2000/svg" xmlns:xlink="http://www.w3.org/1999/xlink" contentScriptType="application/ecmascript" contentStyleType="text/css" height="752px" preserveAspectRatio="none" style="width:795px;height:752px;" version="1.1" viewBox="0 0 795 752" width="795px" zoomAndPan="magnify"><defs><filter height="300%" id="fz5wdo7a1g5f" width="300%" x="-1" y="-1"><feGaussianBlur result="blurOut" stdDeviation="2.0"/><feColorMatrix in="blurOut" result="blurOut2" type="matrix" values="0 0 0 0 0 0 0 0 0 0 0 0 0 0 0 0 0 0 .4 0"/><feOffset dx="4.0" dy="4.0" in="blurOut2" result="blurOut3"/><feBlend in="SourceGraphic" in2="blurOut3" mode="normal"/></filter></defs><g><line style="stroke: #A80036; stroke-width: 1.0; stroke-dasharray: 5.0,5.0;" x1="79" x2="79" y1="38.2969" y2="712.0859"/><line style="stroke: #A80036; stroke-width: 1.0; stroke-dasharray: 5.0,5.0;" x1="329.5" x2="329.5" y1="38.2969" y2="712.0859"/><line style="stroke: #A80036; stroke-width: 1.0; stroke-dasharray: 5.0,5.0;" x1="392.5" x2="392.5" y1="38.2969" y2="712.0859"/><line style="stroke: #A80036; stroke-width: 1.0; stroke-dasharray: 5.0,5.0;" x1="465.5" x2="465.5" y1="38.2969" y2="712.0859"/><rect fill="#FEFECE" filter="url(#fz5wdo7a1g5f)" height="30.2969" style="stroke: #A80036; stroke-width: 1.5;" width="138" x="8" y="3"/><text fill="#000000" font-family="sans-serif" font-size="14" lengthAdjust="spacingAndGlyphs" textLength="124" x="15" y="22.9951">Incubateur DINSIC</text><rect fill="#FEFECE" filter="url(#fz5wdo7a1g5f)" height="30.2969" style="stroke: #A80036; stroke-width: 1.5;" width="138" x="8" y="711.0859"/><text fill="#000000" font-family="sans-serif" font-size="14" lengthAdjust="spacingAndGlyphs" textLength="124" x="15" y="731.0811">Incubateur DINSIC</text><rect fill="#FEFECE" filter="url(#fz5wdo7a1g5f)" height="30.2969" style="stroke: #A80036; stroke-width: 1.5;" width="47" x="304.5" y="3"/><text fill="#000000" font-family="sans-serif" font-size="14" lengthAdjust="spacingAndGlyphs" textLength="33" x="311.5" y="22.9951">Octo</text><rect fill="#FEFECE" filter="url(#fz5wdo7a1g5f)" height="30.2969" style="stroke: #A80036; stroke-width: 1.5;" width="47" x="304.5" y="711.0859"/><text fill="#000000" font-family="sans-serif" font-size="14" lengthAdjust="spacingAndGlyphs" textLength="33" x="311.5" y="731.0811">Octo</text><rect fill="#FEFECE" filter="url(#fz5wdo7a1g5f)" height="30.2969" style="stroke: #A80036; stroke-width: 1.5;" width="51" x="365.5" y="3"/><text fill="#000000" font-family="sans-serif" font-size="14" lengthAdjust="spacingAndGlyphs" textLength="37" x="372.5" y="22.9951">Arolla</text><rect fill="#FEFECE" filter="url(#fz5wdo7a1g5f)" height="30.2969" style="stroke: #A80036; stroke-width: 1.5;" width="51" x="365.5" y="711.0859"/><text fill="#000000" font-family="sans-serif" font-size="14" lengthAdjust="spacingAndGlyphs" textLength="37" x="372.5" y="731.0811">Arolla</text><rect fill="#FEFECE" filter="url(#fz5wdo7a1g5f)" height="30.2969" style="stroke: #A80036; stroke-width: 1.5;" width="66" x="430.5" y="3"/><text fill="#000000" font-family="sans-serif" font-size="14" lengthAdjust="spacingAndGlyphs" textLength="52" x="437.5" y="22.9951">la Zone</text><rect fill="#FEFECE" filter="url(#fz5wdo7a1g5f)" height="30.2969" style="stroke: #A80036; stroke-width: 1.5;" width="66" x="430.5" y="711.0859"/><text fill="#000000" font-family="sans-serif" font-size="14" lengthAdjust="spacingAndGlyphs" textLength="52" x="437.5" y="731.0811">la Zone</text><rect fill="#EEEEEE" filter="url(#fz5wdo7a1g5f)" height="3" style="stroke: #EEEEEE; stroke-width: 1.0;" width="780" x="3" y="68.8633"/><line style="stroke: #000000; stroke-width: 1.0;" x1="3" x2="783" y1="68.8633" y2="68.8633"/><line style="stroke: #000000; stroke-width: 1.0;" x1="3" x2="783" y1="71.8633" y2="71.8633"/><rect fill="#EEEEEE" filter="url(#fz5wdo7a1g5f)" height="23.1328" style="stroke: #000000; stroke-width: 2.0;" width="756" x="15" y="58.2969"/><text fill="#000000" font-family="sans-serif" font-size="13" font-weight="bold" lengthAdjust="spacingAndGlyphs" textLength="737" x="21" y="74.3638">on réemet l'expression de besoin à l'attributaire suivant, jusqu'à l'obtention d'une réponse positive</text><polygon fill="#A80036" points="381,108.5625,391,112.5625,381,116.5625,385,112.5625" style="stroke: #A80036; stroke-width: 1.0;"/><line style="stroke: #A80036; stroke-width: 1.0;" x1="79" x2="387" y1="112.5625" y2="112.5625"/><text fill="#000000" font-family="sans-serif" font-size="13" lengthAdjust="spacingAndGlyphs" textLength="227" x="86" y="107.4966">première Expression de Besoin EB1</text><polygon fill="#A80036" points="90,137.6953,80,141.6953,90,145.6953,86,141.6953" style="stroke: #A80036; stroke-width: 1.0;"/><line style="stroke: #A80036; stroke-width: 1.0;" x1="84" x2="392" y1="141.6953" y2="141.6953"/><text fill="#000000" font-family="sans-serif" font-size="13" lengthAdjust="spacingAndGlyphs" textLength="53" x="96" y="136.6294">non EB1</text><polygon fill="#A80036" points="453.5,166.8281,463.5,170.8281,453.5,174.8281,457.5,170.8281" style="stroke: #A80036; stroke-width: 1.0;"/><line style="stroke: #A80036; stroke-width: 1.0;" x1="79" x2="459.5" y1="170.8281" y2="170.8281"/><text fill="#000000" font-family="sans-serif" font-size="13" lengthAdjust="spacingAndGlyphs" textLength="183" x="86" y="165.7622">ré-Expression de Besoin EB1</text><polygon fill="#A80036" points="90,195.9609,80,199.9609,90,203.9609,86,199.9609" style="stroke: #A80036; stroke-width: 1.0;"/><line style="stroke: #A80036; stroke-width: 1.0;" x1="84" x2="464.5" y1="199.9609" y2="199.9609"/><text fill="#000000" font-family="sans-serif" font-size="13" lengthAdjust="spacingAndGlyphs" textLength="53" x="96" y="194.895">non EB1</text><polygon fill="#A80036" points="318,225.0938,328,229.0938,318,233.0938,322,229.0938" style="stroke: #A80036; stroke-width: 1.0;"/><line style="stroke: #A80036; stroke-width: 1.0;" x1="79" x2="324" y1="229.0938" y2="229.0938"/><text fill="#000000" font-family="sans-serif" font-size="13" lengthAdjust="spacingAndGlyphs" textLength="183" x="86" y="224.0278">ré-Expression de Besoin EB1</text><polygon fill="#A80036" points="90,254.2266,80,258.2266,90,262.2266,86,258.2266" style="stroke: #A80036; stroke-width: 1.0;"/><line style="stroke: #A80036; stroke-width: 1.0;" x1="84" x2="329" y1="258.2266" y2="258.2266"/><text fill="#000000" font-family="sans-serif" font-size="13" lengthAdjust="spacingAndGlyphs" textLength="48" x="96" y="253.1606">oui EB1</text><rect fill="#EEEEEE" filter="url(#fz5wdo7a1g5f)" height="3" style="stroke: #EEEEEE; stroke-width: 1.0;" width="780" x="3" y="286.793"/><line style="stroke: #000000; stroke-width: 1.0;" x1="3" x2="783" y1="286.793" y2="286.793"/><line style="stroke: #000000; stroke-width: 1.0;" x1="3" x2="783" y1="289.793" y2="289.793"/><rect fill="#EEEEEE" filter="url(#fz5wdo7a1g5f)" height="23.1328" style="stroke: #000000; stroke-width: 2.0;" width="408" x="189" y="276.2266"/><text fill="#000000" font-family="sans-serif" font-size="13" font-weight="bold" lengthAdjust="spacingAndGlyphs" textLength="384" x="195" y="292.2935">on fait tourner les premières expression de besoins</text><polygon fill="#A80036" points="318,326.4922,328,330.4922,318,334.4922,322,330.4922" style="stroke: #A80036; stroke-width: 1.0;"/><line style="stroke: #A80036; stroke-width: 1.0;" x1="79" x2="324" y1="330.4922" y2="330.4922"/><text fill="#000000" font-family="sans-serif" font-size="13" lengthAdjust="spacingAndGlyphs" textLength="227" x="86" y="325.4263">première Expression de Besoin EB1</text><polygon fill="#A80036" points="90,355.625,80,359.625,90,363.625,86,359.625" style="stroke: #A80036; stroke-width: 1.0;"/><line style="stroke: #A80036; stroke-width: 1.0;" x1="84" x2="329" y1="359.625" y2="359.625"/><text fill="#000000" font-family="sans-serif" font-size="13" lengthAdjust="spacingAndGlyphs" textLength="48" x="96" y="354.5591">oui EB1</text><polygon fill="#A80036" points="381,384.7578,391,388.7578,381,392.7578,385,388.7578" style="stroke: #A80036; stroke-width: 1.0;"/><line style="stroke: #A80036; stroke-width: 1.0;" x1="79" x2="387" y1="388.7578" y2="388.7578"/><text fill="#000000" font-family="sans-serif" font-size="13" lengthAdjust="spacingAndGlyphs" textLength="227" x="86" y="383.6919">première Expression de Besoin EB2</text><polygon fill="#A80036" points="453.5,413.8906,463.5,417.8906,453.5,421.8906,457.5,417.8906" style="stroke: #A80036; stroke-width: 1.0;"/><line style="stroke: #A80036; stroke-width: 1.0;" x1="79" x2="459.5" y1="417.8906" y2="417.8906"/><text fill="#000000" font-family="sans-serif" font-size="13" lengthAdjust="spacingAndGlyphs" textLength="227" x="86" y="412.8247">première Expression de Besoin EB3</text><polygon fill="#A80036" points="318,443.0234,328,447.0234,318,451.0234,322,447.0234" style="stroke: #A80036; stroke-width: 1.0;"/><line style="stroke: #A80036; stroke-width: 1.0;" x1="79" x2="324" y1="447.0234" y2="447.0234"/><text fill="#000000" font-family="sans-serif" font-size="13" lengthAdjust="spacingAndGlyphs" textLength="227" x="86" y="441.9575">première Expression de Besoin EB4</text><polygon fill="#A80036" points="90,472.1563,80,476.1563,90,480.1563,86,476.1563" style="stroke: #A80036; stroke-width: 1.0;"/><line style="stroke: #A80036; stroke-width: 1.0;" x1="84" x2="329" y1="476.1563" y2="476.1563"/><text fill="#000000" font-family="sans-serif" font-size="13" lengthAdjust="spacingAndGlyphs" textLength="48" x="96" y="471.0903">oui EB4</text><polygon fill="#A80036" points="90,501.2891,80,505.2891,90,509.2891,86,505.2891" style="stroke: #A80036; stroke-width: 1.0;"/><line style="stroke: #A80036; stroke-width: 1.0;" x1="84" x2="464.5" y1="505.2891" y2="505.2891"/><text fill="#000000" font-family="sans-serif" font-size="13" lengthAdjust="spacingAndGlyphs" textLength="48" x="96" y="500.2231">oui EB3</text><polygon fill="#A80036" points="90,530.4219,80,534.4219,90,538.4219,86,534.4219" style="stroke: #A80036; stroke-width: 1.0;"/><line style="stroke: #A80036; stroke-width: 1.0;" x1="84" x2="392" y1="534.4219" y2="534.4219"/><text fill="#000000" font-family="sans-serif" font-size="13" lengthAdjust="spacingAndGlyphs" textLength="48" x="96" y="529.356">oui EB2</text><rect fill="#EEEEEE" filter="url(#fz5wdo7a1g5f)" height="3" style="stroke: #EEEEEE; stroke-width: 1.0;" width="780" x="3" y="562.9883"/><line style="stroke: #000000; stroke-width: 1.0;" x1="3" x2="783" y1="562.9883" y2="562.9883"/><line style="stroke: #000000; stroke-width: 1.0;" x1="3" x2="783" y1="565.9883" y2="565.9883"/><rect fill="#EEEEEE" filter="url(#fz5wdo7a1g5f)" height="23.1328" style="stroke: #000000; stroke-width: 2.0;" width="568" x="109" y="552.4219"/><text fill="#000000" font-family="sans-serif" font-size="13" font-weight="bold" lengthAdjust="spacingAndGlyphs" textLength="544" x="115" y="568.4888">un attributaire peut recevoir successivement deux expressions de besoin</text><polygon fill="#A80036" points="381,602.6875,391,606.6875,381,610.6875,385,606.6875" style="stroke: #A80036; stroke-width: 1.0;"/><line style="stroke: #A80036; stroke-width: 1.0;" x1="79" x2="387" y1="606.6875" y2="606.6875"/><text fill="#000000" font-family="sans-serif" font-size="13" lengthAdjust="spacingAndGlyphs" textLength="227" x="86" y="601.6216">première Expression de Besoin EB1</text><polygon fill="#A80036" points="90,631.8203,80,635.8203,90,639.8203,86,635.8203" style="stroke: #A80036; stroke-width: 1.0;"/><line style="stroke: #A80036; stroke-width: 1.0;" x1="84" x2="392" y1="635.8203" y2="635.8203"/><text fill="#000000" font-family="sans-serif" font-size="13" lengthAdjust="spacingAndGlyphs" textLength="53" x="96" y="630.7544">non EB1</text><polygon fill="#A80036" points="453.5,660.9531,463.5,664.9531,453.5,668.9531,457.5,664.9531" style="stroke: #A80036; stroke-width: 1.0;"/><line style="stroke: #A80036; stroke-width: 1.0;" x1="79" x2="459.5" y1="664.9531" y2="664.9531"/><text fill="#000000" font-family="sans-serif" font-size="13" lengthAdjust="spacingAndGlyphs" textLength="249" x="86" y="659.8872">ré-Expression de besoin de Besoin EB1</text><polygon fill="#A80036" points="453.5,690.0859,463.5,694.0859,453.5,698.0859,457.5,694.0859" style="stroke: #A80036; stroke-width: 1.0;"/><line style="stroke: #A80036; stroke-width: 1.0;" x1="79" x2="459.5" y1="694.0859" y2="694.0859"/><text fill="#000000" font-family="sans-serif" font-size="13" lengthAdjust="spacingAndGlyphs" textLength="227" x="86" y="689.02">première Expression de Besoin EB2</text><!--
@startuml

participant "Incubateur DINSIC" as dinsic
participant "Octo" as octo
participant "Arolla" as arolla
participant "la Zone" as lazone

== on réemet l'expression de besoin à l'attributaire suivant, jusqu'à l'obtention d'une réponse positive ==

dinsic -> arolla : première Expression de Besoin EB1
arolla -> dinsic : non EB1
dinsic -> lazone : ré-Expression de Besoin EB1
lazone -> dinsic : non EB1
dinsic -> octo : ré-Expression de Besoin EB1
octo -> dinsic : oui EB1

== on fait tourner les premières expression de besoins  ==

dinsic -> octo : première Expression de Besoin EB1
octo -> dinsic : oui EB1
dinsic -> arolla : première Expression de Besoin EB2
dinsic -> lazone : première Expression de Besoin EB3
dinsic -> octo : première Expression de Besoin EB4
octo -> dinsic : oui EB4
lazone -> dinsic : oui EB3
arolla -> dinsic : oui EB2

== un attributaire peut recevoir successivement deux expressions de besoin  ==

dinsic -> arolla : première Expression de Besoin EB1
arolla -> dinsic : non EB1
dinsic -> lazone : ré-Expression de besoin de Besoin EB1
dinsic -> lazone : première Expression de Besoin EB2

@enduml

PlantUML version 1.2018.11(Sat Sep 22 18:43:53 CEST 2018)
(GPL source distribution)
Java Runtime: Java(TM) SE Runtime Environment
JVM: Java HotSpot(TM) 64-Bit Server VM
Java Version: 1.8.0_101-b13
Operating System: Linux
OS Version: 4.4.0-135-generic
Default Encoding: UTF-8
Language: en
Country: US
--></g></svg>