<?xml version="1.0" encoding="UTF-8" standalone="no"?><svg xmlns="http://www.w3.org/2000/svg" xmlns:xlink="http://www.w3.org/1999/xlink" contentScriptType="application/ecmascript" contentStyleType="text/css" height="787px" preserveAspectRatio="none" style="width:515px;height:787px;" version="1.1" viewBox="0 0 515 787" width="515px" zoomAndPan="magnify"><defs><filter height="300%" id="f318lpyvrpmrb" width="300%" x="-1" y="-1"><feGaussianBlur result="blurOut" stdDeviation="2.0"/><feColorMatrix in="blurOut" result="blurOut2" type="matrix" values="0 0 0 0 0 0 0 0 0 0 0 0 0 0 0 0 0 0 .4 0"/><feOffset dx="4.0" dy="4.0" in="blurOut2" result="blurOut3"/><feBlend in="SourceGraphic" in2="blurOut3" mode="normal"/></filter></defs><g><line style="stroke: #A80036; stroke-width: 1.0;" x1="91" x2="91" y1="38.2969" y2="653.8203"/><line style="stroke: #A80036; stroke-width: 1.0; stroke-dasharray: 1.0,4.0;" x1="91" x2="91" y1="653.8203" y2="694.625"/><line style="stroke: #A80036; stroke-width: 1.0;" x1="91" x2="91" y1="694.625" y2="746.7578"/><line style="stroke: #A80036; stroke-width: 1.0;" x1="279.5" x2="279.5" y1="38.2969" y2="653.8203"/><line style="stroke: #A80036; stroke-width: 1.0; stroke-dasharray: 1.0,4.0;" x1="279.5" x2="279.5" y1="653.8203" y2="694.625"/><line style="stroke: #A80036; stroke-width: 1.0;" x1="279.5" x2="279.5" y1="694.625" y2="746.7578"/><line style="stroke: #A80036; stroke-width: 1.0;" x1="390.5" x2="390.5" y1="38.2969" y2="653.8203"/><line style="stroke: #A80036; stroke-width: 1.0; stroke-dasharray: 1.0,4.0;" x1="390.5" x2="390.5" y1="653.8203" y2="694.625"/><line style="stroke: #A80036; stroke-width: 1.0;" x1="390.5" x2="390.5" y1="694.625" y2="746.7578"/><line style="stroke: #A80036; stroke-width: 1.0;" x1="463.5" x2="463.5" y1="38.2969" y2="653.8203"/><line style="stroke: #A80036; stroke-width: 1.0; stroke-dasharray: 1.0,4.0;" x1="463.5" x2="463.5" y1="653.8203" y2="694.625"/><line style="stroke: #A80036; stroke-width: 1.0;" x1="463.5" x2="463.5" y1="694.625" y2="746.7578"/><rect fill="#FEFECE" filter="url(#f318lpyvrpmrb)" height="30.2969" style="stroke: #A80036; stroke-width: 1.5;" width="138" x="20" y="3"/><text fill="#000000" font-family="sans-serif" font-size="14" lengthAdjust="spacingAndGlyphs" textLength="124" x="27" y="22.9951">Incubateur DINSIC</text><rect fill="#FEFECE" filter="url(#f318lpyvrpmrb)" height="30.2969" style="stroke: #A80036; stroke-width: 1.5;" width="138" x="20" y="745.7578"/><text fill="#000000" font-family="sans-serif" font-size="14" lengthAdjust="spacingAndGlyphs" textLength="124" x="27" y="765.7529">Incubateur DINSIC</text><rect fill="#FEFECE" filter="url(#f318lpyvrpmrb)" height="30.2969" style="stroke: #A80036; stroke-width: 1.5;" width="47" x="254.5" y="3"/><text fill="#000000" font-family="sans-serif" font-size="14" lengthAdjust="spacingAndGlyphs" textLength="33" x="261.5" y="22.9951">Octo</text><rect fill="#FEFECE" filter="url(#f318lpyvrpmrb)" height="30.2969" style="stroke: #A80036; stroke-width: 1.5;" width="47" x="254.5" y="745.7578"/><text fill="#000000" font-family="sans-serif" font-size="14" lengthAdjust="spacingAndGlyphs" textLength="33" x="261.5" y="765.7529">Octo</text><rect fill="#FEFECE" filter="url(#f318lpyvrpmrb)" height="30.2969" style="stroke: #A80036; stroke-width: 1.5;" width="51" x="363.5" y="3"/><text fill="#000000" font-family="sans-serif" font-size="14" lengthAdjust="spacingAndGlyphs" textLength="37" x="370.5" y="22.9951">Arolla</text><rect fill="#FEFECE" filter="url(#f318lpyvrpmrb)" height="30.2969" style="stroke: #A80036; stroke-width: 1.5;" width="51" x="363.5" y="745.7578"/><text fill="#000000" font-family="sans-serif" font-size="14" lengthAdjust="spacingAndGlyphs" textLength="37" x="370.5" y="765.7529">Arolla</text><rect fill="#FEFECE" filter="url(#f318lpyvrpmrb)" height="30.2969" style="stroke: #A80036; stroke-width: 1.5;" width="66" x="428.5" y="3"/><text fill="#000000" font-family="sans-serif" font-size="14" lengthAdjust="spacingAndGlyphs" textLength="52" x="435.5" y="22.9951">la Zone</text><rect fill="#FEFECE" filter="url(#f318lpyvrpmrb)" height="30.2969" style="stroke: #A80036; stroke-width: 1.5;" width="66" x="428.5" y="745.7578"/><text fill="#000000" font-family="sans-serif" font-size="14" lengthAdjust="spacingAndGlyphs" textLength="52" x="435.5" y="765.7529">la Zone</text><rect fill="#EEEEEE" filter="url(#f318lpyvrpmrb)" height="3" style="stroke: #EEEEEE; stroke-width: 1.0;" width="500.5" x="3" y="68.8633"/><line style="stroke: #000000; stroke-width: 1.0;" x1="3" x2="503.5" y1="68.8633" y2="68.8633"/><line style="stroke: #000000; stroke-width: 1.0;" x1="3" x2="503.5" y1="71.8633" y2="71.8633"/><rect fill="#EEEEEE" filter="url(#f318lpyvrpmrb)" height="23.1328" style="stroke: #000000; stroke-width: 2.0;" width="66" x="220.25" y="58.2969"/><text fill="#000000" font-family="sans-serif" font-size="13" font-weight="bold" lengthAdjust="spacingAndGlyphs" textLength="42" x="226.25" y="74.3638">fluide</text><polygon fill="#A80036" points="268,108.5625,278,112.5625,268,116.5625,272,112.5625" style="stroke: #A80036; stroke-width: 1.0;"/><line style="stroke: #A80036; stroke-width: 1.0;" x1="91" x2="274" y1="112.5625" y2="112.5625"/><text fill="#000000" font-family="sans-serif" font-size="13" lengthAdjust="spacingAndGlyphs" textLength="165" x="98" y="107.4966">Expression de Besoin EB1</text><polygon fill="#A80036" points="102,137.6953,92,141.6953,102,145.6953,98,141.6953" style="stroke: #A80036; stroke-width: 1.0;"/><line style="stroke: #A80036; stroke-width: 1.0;" x1="96" x2="279" y1="141.6953" y2="141.6953"/><text fill="#000000" font-family="sans-serif" font-size="13" lengthAdjust="spacingAndGlyphs" textLength="48" x="108" y="136.6294">oui EB1</text><polygon fill="#A80036" points="379,166.8281,389,170.8281,379,174.8281,383,170.8281" style="stroke: #A80036; stroke-width: 1.0;"/><line style="stroke: #A80036; stroke-width: 1.0;" x1="91" x2="385" y1="170.8281" y2="170.8281"/><text fill="#000000" font-family="sans-serif" font-size="13" lengthAdjust="spacingAndGlyphs" textLength="165" x="98" y="165.7622">Expression de Besoin EB2</text><polygon fill="#A80036" points="102,195.9609,92,199.9609,102,203.9609,98,199.9609" style="stroke: #A80036; stroke-width: 1.0;"/><line style="stroke: #A80036; stroke-width: 1.0;" x1="96" x2="390" y1="199.9609" y2="199.9609"/><text fill="#000000" font-family="sans-serif" font-size="13" lengthAdjust="spacingAndGlyphs" textLength="53" x="108" y="194.895">non EB2</text><polygon fill="#A80036" points="451.5,225.0938,461.5,229.0938,451.5,233.0938,455.5,229.0938" style="stroke: #A80036; stroke-width: 1.0;"/><line style="stroke: #A80036; stroke-width: 1.0;" x1="91" x2="457.5" y1="229.0938" y2="229.0938"/><text fill="#000000" font-family="sans-serif" font-size="13" lengthAdjust="spacingAndGlyphs" textLength="165" x="98" y="224.0278">Expression de Besoin EB2</text><polygon fill="#A80036" points="102,254.2266,92,258.2266,102,262.2266,98,258.2266" style="stroke: #A80036; stroke-width: 1.0;"/><line style="stroke: #A80036; stroke-width: 1.0;" x1="96" x2="462.5" y1="258.2266" y2="258.2266"/><text fill="#000000" font-family="sans-serif" font-size="13" lengthAdjust="spacingAndGlyphs" textLength="48" x="108" y="253.1606">oui EB2</text><polygon fill="#A80036" points="268,283.3594,278,287.3594,268,291.3594,272,287.3594" style="stroke: #A80036; stroke-width: 1.0;"/><line style="stroke: #A80036; stroke-width: 1.0;" x1="91" x2="274" y1="287.3594" y2="287.3594"/><text fill="#000000" font-family="sans-serif" font-size="13" lengthAdjust="spacingAndGlyphs" textLength="165" x="98" y="282.2935">Expression de Besoin EB3</text><rect fill="#EEEEEE" filter="url(#f318lpyvrpmrb)" height="3" style="stroke: #EEEEEE; stroke-width: 1.0;" width="500.5" x="3" y="315.9258"/><line style="stroke: #000000; stroke-width: 1.0;" x1="3" x2="503.5" y1="315.9258" y2="315.9258"/><line style="stroke: #000000; stroke-width: 1.0;" x1="3" x2="503.5" y1="318.9258" y2="318.9258"/><rect fill="#EEEEEE" filter="url(#f318lpyvrpmrb)" height="23.1328" style="stroke: #000000; stroke-width: 2.0;" width="75" x="215.75" y="305.3594"/><text fill="#000000" font-family="sans-serif" font-size="13" font-weight="bold" lengthAdjust="spacingAndGlyphs" textLength="51" x="221.75" y="321.4263">bloqué</text><polygon fill="#A80036" points="268,355.625,278,359.625,268,363.625,272,359.625" style="stroke: #A80036; stroke-width: 1.0;"/><line style="stroke: #A80036; stroke-width: 1.0;" x1="91" x2="274" y1="359.625" y2="359.625"/><text fill="#000000" font-family="sans-serif" font-size="13" lengthAdjust="spacingAndGlyphs" textLength="165" x="98" y="354.5591">Expression de Besoin EB1</text><polygon fill="#A80036" points="102,384.7578,92,388.7578,102,392.7578,98,388.7578" style="stroke: #A80036; stroke-width: 1.0;"/><line style="stroke: #A80036; stroke-width: 1.0;" x1="96" x2="279" y1="388.7578" y2="388.7578"/><text fill="#000000" font-family="sans-serif" font-size="13" lengthAdjust="spacingAndGlyphs" textLength="48" x="108" y="383.6919">oui EB1</text><polygon fill="#A80036" points="379,413.8906,389,417.8906,379,421.8906,383,417.8906" style="stroke: #A80036; stroke-width: 1.0;"/><line style="stroke: #A80036; stroke-width: 1.0;" x1="91" x2="385" y1="417.8906" y2="417.8906"/><text fill="#000000" font-family="sans-serif" font-size="13" lengthAdjust="spacingAndGlyphs" textLength="165" x="98" y="412.8247">Expression de Besoin EB2</text><polygon fill="#A80036" points="379,443.0234,389,447.0234,379,451.0234,383,447.0234" style="stroke: #A80036; stroke-width: 1.0;"/><line style="stroke: #A80036; stroke-width: 1.0;" x1="91" x2="385" y1="447.0234" y2="447.0234"/><text fill="#000000" font-family="sans-serif" font-size="13" lengthAdjust="spacingAndGlyphs" textLength="165" x="98" y="441.9575">Expression de Besoin EB3</text><polygon fill="#A80036" points="102,472.1563,92,476.1563,102,480.1563,98,476.1563" style="stroke: #A80036; stroke-width: 1.0;"/><line style="stroke: #A80036; stroke-width: 1.0;" x1="96" x2="390" y1="476.1563" y2="476.1563"/><text fill="#000000" font-family="sans-serif" font-size="13" lengthAdjust="spacingAndGlyphs" textLength="53" x="108" y="471.0903">non EB2</text><polygon fill="#A80036" points="451.5,501.2891,461.5,505.2891,451.5,509.2891,455.5,505.2891" style="stroke: #A80036; stroke-width: 1.0;"/><line style="stroke: #A80036; stroke-width: 1.0;" x1="91" x2="457.5" y1="505.2891" y2="505.2891"/><text fill="#000000" font-family="sans-serif" font-size="13" lengthAdjust="spacingAndGlyphs" textLength="165" x="98" y="500.2231">Expression de Besoin EB2</text><polygon fill="#A80036" points="451.5,530.4219,461.5,534.4219,451.5,538.4219,455.5,534.4219" style="stroke: #A80036; stroke-width: 1.0;"/><line style="stroke: #A80036; stroke-width: 1.0;" x1="91" x2="457.5" y1="534.4219" y2="534.4219"/><text fill="#000000" font-family="sans-serif" font-size="13" lengthAdjust="spacingAndGlyphs" textLength="165" x="98" y="529.356">Expression de Besoin EB2</text><path d="M8,547.4219 L8,572.4219 L171,572.4219 L171,557.4219 L161,547.4219 L8,547.4219 " fill="#FBFB77" filter="url(#f318lpyvrpmrb)" style="stroke: #A80036; stroke-width: 1.0;"/><path d="M161,547.4219 L161,557.4219 L171,557.4219 L161,547.4219 " fill="#FBFB77" style="stroke: #A80036; stroke-width: 1.0;"/><text fill="#000000" font-family="sans-serif" font-size="13" lengthAdjust="spacingAndGlyphs" textLength="142" x="14" y="564.4888">À qui envoit-on l'EB3 ?</text><rect fill="#EEEEEE" filter="url(#f318lpyvrpmrb)" height="3" style="stroke: #EEEEEE; stroke-width: 1.0;" width="500.5" x="3" y="602.1211"/><line style="stroke: #000000; stroke-width: 1.0;" x1="3" x2="503.5" y1="602.1211" y2="602.1211"/><line style="stroke: #000000; stroke-width: 1.0;" x1="3" x2="503.5" y1="605.1211" y2="605.1211"/><rect fill="#EEEEEE" filter="url(#f318lpyvrpmrb)" height="23.1328" style="stroke: #000000; stroke-width: 2.0;" width="81" x="212.75" y="591.5547"/><text fill="#000000" font-family="sans-serif" font-size="13" font-weight="bold" lengthAdjust="spacingAndGlyphs" textLength="57" x="218.75" y="607.6216">forçage</text><polygon fill="#A80036" points="379,641.8203,389,645.8203,379,649.8203,383,645.8203" style="stroke: #A80036; stroke-width: 1.0;"/><line style="stroke: #A80036; stroke-width: 1.0;" x1="91" x2="385" y1="645.8203" y2="645.8203"/><text fill="#000000" font-family="sans-serif" font-size="13" lengthAdjust="spacingAndGlyphs" textLength="276" x="98" y="640.7544">émission de Bon de Commande sans devis</text><text fill="#000000" font-family="sans-serif" font-size="11" lengthAdjust="spacingAndGlyphs" textLength="123" x="215.75" y="678.0308">6 jours sans réponse</text><line style="stroke: #A80036; stroke-width: 1.0;" x1="91" x2="133" y1="715.7578" y2="715.7578"/><line style="stroke: #A80036; stroke-width: 1.0;" x1="133" x2="133" y1="715.7578" y2="728.7578"/><line style="stroke: #A80036; stroke-width: 1.0;" x1="92" x2="133" y1="728.7578" y2="728.7578"/><polygon fill="#A80036" points="102,724.7578,92,728.7578,102,732.7578,98,728.7578" style="stroke: #A80036; stroke-width: 1.0;"/><text fill="#000000" font-family="sans-serif" font-size="13" lengthAdjust="spacingAndGlyphs" textLength="115" x="98" y="710.6919">attribution d'office</text><!--
@startuml

participant "Incubateur DINSIC" as dinsic
participant "Octo" as octo
participant "Arolla" as arolla
participant "la Zone" as lazone

== fluide  ==

dinsic -> octo : Expression de Besoin EB1
octo -> dinsic : oui EB1
dinsic -> arolla : Expression de Besoin EB2
arolla -> dinsic : non EB2
dinsic -> lazone : Expression de Besoin EB2
lazone -> dinsic : oui EB2
dinsic -> octo : Expression de Besoin EB3

== bloqué  ==

dinsic -> octo : Expression de Besoin EB1
octo -> dinsic : oui EB1
dinsic -> arolla : Expression de Besoin EB2
dinsic -> arolla : Expression de Besoin EB3
arolla -> dinsic : non EB2
dinsic -> lazone : Expression de Besoin EB2
dinsic -> lazone : Expression de Besoin EB2
note over dinsic
  À qui envoit-on l'EB3 ?
end note

== forçage  ==

dinsic -> arolla : émission de Bon de Commande sans devis
... 6 jours sans réponse ...
dinsic -> dinsic : attribution d'office

@enduml

PlantUML version 1.2018.11(Sat Sep 22 18:43:53 CEST 2018)
(GPL source distribution)
Java Runtime: Java(TM) SE Runtime Environment
JVM: Java HotSpot(TM) 64-Bit Server VM
Java Version: 1.8.0_101-b13
Operating System: Linux
OS Version: 4.4.0-135-generic
Default Encoding: UTF-8
Language: en
Country: US
--></g></svg>